<svg xmlns="http://www.w3.org/2000/svg" width="40" height="40" viewBox="0 0 40 40">
    <defs>
        <clipPath id="d4u9towxra">
            <path fill="#fff" stroke="#707070" d="M0 0H40V40H0z" transform="translate(28 8)"/>
        </clipPath>
    </defs>
    <g clip-path="url(#d4u9towxra)" transform="translate(-28 -8)">
        <g>
            <g>
                <path d="M13.4 5.939a.644.644 0 0 0 .3-.051 11.687 11.687 0 0 1 2.538-.914.757.757 0 1 0-.349-1.474A18.364 18.364 0 0 0 13.1 4.518a.721.721 0 0 0-.355 1.015.68.68 0 0 0 .655.406z" transform="translate(27.467 7.174)"/>
                <path d="M24.316 4.975c.3.1.558.152.863.254a12.385 12.385 0 0 1 1.726.711.644.644 0 0 0 .3.051.766.766 0 0 0 .711-.457.776.776 0 0 0-.355-1.015 12.121 12.121 0 0 0-1.878-.761l-.914-.3a.726.726 0 0 0-.914.508.705.705 0 0 0 .461 1.009z" transform="translate(27.467 7.174)"/>
                <path d="M18.935 4.467a15.87 15.87 0 0 1 2.691 0h.051a.772.772 0 0 0 .761-.711.719.719 0 0 0-.711-.812 14.764 14.764 0 0 0-3 0 .821.821 0 0 0-.711.812.9.9 0 0 0 .919.711z" transform="translate(27.467 7.174)"/>
                <path d="M30.662 8.224a.815.815 0 0 0 .558-.254.74.74 0 0 0-.1-1.066 7.911 7.911 0 0 0-1.02-.812.761.761 0 0 0-.91 1.218c.3.254.66.508.965.761a.858.858 0 0 0 .507.153z" transform="translate(27.467 7.174)"/>
                <path d="M10.407 7.97c.3-.254.609-.508.965-.761a.767.767 0 1 0-.863-1.269c-.355.254-.711.508-1.066.812a17.027 17.027 0 0 0-5.178 7.564 16.7 16.7 0 0 0 .558 12.234l-3.3-.863a.8.8 0 0 0-.965.508.8.8 0 0 0 .508.965L6.4 28.682c.051 0 .152.051.2.051a.819.819 0 0 0 .457-.152.7.7 0 0 0 .3-.558l.406-5.533a.78.78 0 0 0-.711-.812.821.821 0 0 0-.812.711l-.254 3.35a15.126 15.126 0 0 1-.355-10.762 15.741 15.741 0 0 1 4.776-7.007z" transform="translate(27.467 7.174)"/>
                <path d="M27.311 35.789a11.687 11.687 0 0 1-2.538.914.757.757 0 0 0-.558.914.747.747 0 0 0 .711.558.305.305 0 0 0 .2-.051 18.364 18.364 0 0 0 2.792-1.015.721.721 0 0 0 .355-1.015.66.66 0 0 0-.962-.305z" transform="translate(27.467 7.174)"/>
                <path d="M16.7 36.7c-.3-.1-.558-.152-.863-.254a12.385 12.385 0 0 1-1.726-.711.761.761 0 1 0-.66 1.371 12.121 12.121 0 0 0 1.878.761l.914.3c.051 0 .152.051.2.051A.792.792 0 0 0 16.7 36.7z" transform="translate(27.467 7.174)"/>
                <path d="M22.083 37.21a15.87 15.87 0 0 1-2.691 0 .763.763 0 1 0-.1 1.523c.508.051 1.015.051 1.523.051a13.3 13.3 0 0 0 1.421-.051.821.821 0 0 0 .711-.812.763.763 0 0 0-.864-.711z" transform="translate(27.467 7.174)"/>
                <path d="M11.828 34.368c-.3-.254-.66-.508-.965-.761a.757.757 0 1 0-.963 1.167c.355.3.711.558 1.066.812a.819.819 0 0 0 .457.152.724.724 0 0 0 .609-.3.8.8 0 0 0-.204-1.07z" transform="translate(27.467 7.174)"/>
                <path d="M39.952 14.519L34.621 13a1.015 1.015 0 0 0-.66.1.7.7 0 0 0-.3.558l-.406 5.533a.78.78 0 0 0 .711.812h.051a.772.772 0 0 0 .761-.711l.254-3.35a15.126 15.126 0 0 1 .351 10.758 15.481 15.481 0 0 1-4.721 6.9c-.3.254-.609.508-.965.761a.743.743 0 0 0 .406 1.371.819.819 0 0 0 .457-.152c.355-.254.711-.508 1.066-.812A17.027 17.027 0 0 0 36.8 27.21a16.7 16.7 0 0 0-.558-12.234l3.3.965a.8.8 0 0 0 .965-.508.781.781 0 0 0-.555-.914z" transform="translate(27.467 7.174)"/>
                <path d="M25.382 22.235a.775.775 0 0 0-1.32.812l2.944 4.823a.483.483 0 0 1 0 .457c-.051.051-.1.1-.152.1h-13.3c-.1 0-.152-.051-.152-.1a.474.474 0 0 1 0-.457l2.944-4.823a.775.775 0 0 0-1.32-.812l-2.944 4.823a2.105 2.105 0 0 0-.051 1.98 1.7 1.7 0 0 0 1.472.914H26.8a1.7 1.7 0 0 0 1.472-.914 1.86 1.86 0 0 0-.051-1.98z" transform="translate(27.467 7.174)"/>
                <path d="M20.2 10.458a6.244 6.244 0 1 0 6.248 6.242 6.24 6.24 0 0 0-6.248-6.242zm0 10.965a4.721 4.721 0 1 1 4.725-4.723 4.68 4.68 0 0 1-4.725 4.723z" transform="translate(27.467 7.174)"/>
            </g>
        </g>
    </g>
</svg>
