<svg xmlns="http://www.w3.org/2000/svg" width="124" height="124" viewBox="0 0 124 124">
    <defs>
        <clipPath id="prefix__clip-path">
            <path id="prefix__Rectangle_128" d="M0 0H124V124H0z" data-name="Rectangle 128" transform="translate(58 37)" style="fill:#fff;stroke:#707070"/>
        </clipPath>
        <style>
            .prefix__cls-3{fill:none;stroke:#000;stroke-linecap:round;stroke-linejoin:round;stroke-miterlimit:10;stroke-width:5.905px}
        </style>
    </defs>
    <g id="prefix__Mask_Group_57" data-name="Mask Group 57" transform="translate(-58 -37)">
        <g id="prefix__Layer_1" transform="translate(41.565 20.663)">
            <g id="prefix__Group_172" data-name="Group 172">
                <path id="prefix__Path_161" d="M113.765 137.384H43.1a18.69 18.69 0 0 1-18.7-18.7V51.568a18.69 18.69 0 0 1 18.7-18.7h70.66a18.69 18.69 0 0 1 18.7 18.7v67.117a18.566 18.566 0 0 1-18.695 18.699z" class="prefix__cls-3" data-name="Path 161"/>
                <path id="prefix__Line_119" d="M0 0L103.727 0" class="prefix__cls-3" data-name="Line 119" transform="translate(26.571 60.425)"/>
                <g id="prefix__Group_169" data-name="Group 169">
                    <path id="prefix__Line_120" d="M0 0L81.683 0" class="prefix__cls-3" data-name="Line 120" transform="translate(37.79 86.603)"/>
                    <path id="prefix__Line_121" d="M0 0L81.683 0" class="prefix__cls-3" data-name="Line 121" transform="translate(37.79 104.908)"/>
                </g>
                <g id="prefix__Group_170" data-name="Group 170">
                    <path id="prefix__Line_122" d="M0 0L0 50.978" class="prefix__cls-3" data-name="Line 122" transform="translate(93.295 70.267)"/>
                    <path id="prefix__Line_123" d="M0 0L0 50.978" class="prefix__cls-3" data-name="Line 123" transform="translate(63.378 70.267)"/>
                </g>
                <g id="prefix__Group_171" data-name="Group 171">
                    <path id="prefix__Rectangle_133" d="M0 0H6.495V13.384H0z" class="prefix__cls-3" data-name="Rectangle 133" transform="translate(44.876 19.289)"/>
                    <path id="prefix__Rectangle_134" d="M0 0H6.495V13.384H0z" class="prefix__cls-3" data-name="Rectangle 134" transform="translate(105.302 19.289)"/>
                </g>
            </g>
        </g>
    </g>
</svg>
