<?xml version="1.0" encoding="utf-8"?>
<!-- Generator: Adobe Illustrator 24.0.3, SVG Export Plug-In . SVG Version: 6.00 Build 0)  -->
<svg version="1.1" xmlns="http://www.w3.org/2000/svg" xmlns:xlink="http://www.w3.org/1999/xlink" x="0px" y="0px"
	 viewBox="0 0 79.7 79.7" style="enable-background:new 0 0 79.7 79.7;" xml:space="preserve">
<style type="text/css">
	.st0{fill:none;stroke:#000000;stroke-width:3;stroke-linecap:round;stroke-linejoin:round;stroke-miterlimit:10;}
	.st1{fill:none;stroke:#000000;stroke-width:3;stroke-miterlimit:10;}
	
		.st2{fill:none;stroke:#000000;stroke-width:3;stroke-linecap:round;stroke-linejoin:round;stroke-miterlimit:10;stroke-dasharray:5;}
	.st3{fill:none;stroke:#000000;stroke-width:3;stroke-linecap:round;stroke-linejoin:round;}
	.st4{fill:none;stroke:#000000;stroke-width:3;stroke-linecap:round;stroke-linejoin:round;stroke-dasharray:5.6213,5.6213;}
	.st5{fill:none;stroke:#000000;stroke-width:2;stroke-linecap:round;stroke-linejoin:round;stroke-miterlimit:10;}
	.st6{fill:none;stroke:#000000;stroke-linecap:round;stroke-linejoin:round;stroke-miterlimit:10;}
	.st7{fill:none;stroke:#000000;stroke-width:2.9;stroke-linecap:round;stroke-linejoin:round;stroke-miterlimit:10;}
	.st8{display:none;fill:none;stroke:#000000;stroke-width:3;stroke-linecap:round;stroke-linejoin:round;stroke-miterlimit:10;}
	.st9{fill:none;}
	.st10{fill:#FFFFFF;stroke:#000000;stroke-width:2.9;stroke-linecap:round;stroke-linejoin:round;stroke-miterlimit:10;}
</style>
<g id="Layer_1">
	<g>
		<path class="st7" d="M58.6,13.5c0-5.1-3.5-8.3-7.9-8.3H24.8v21.7H7.5V55c0,5.1,3.5,9.1,7.9,9.1h5.4"/>
		<line class="st7" x1="7.5" y1="26.9" x2="24.8" y2="5.2"/>
		<rect x="16.1" y="48" class="st7" width="5.7" height="6.6"/>
		<rect x="16.1" y="35.1" class="st7" width="5.7" height="6.6"/>
	</g>
	<g>
		<path class="st10" d="M65.4,13.5H39.1v22.1H21.5v28.6c0,5.1,3.6,9.3,8.1,9.3h35.9c4.5,0,8.1-4.2,8.1-9.3V22.8
			C73.5,17.6,69.9,13.5,65.4,13.5z"/>
		<line class="st7" x1="21.5" y1="35.5" x2="39.1" y2="13.5"/>
		<rect x="30.3" y="57" class="st7" width="5.8" height="6.7"/>
		<rect x="30.3" y="43.9" class="st7" width="5.8" height="6.7"/>
		<line class="st7" x1="42.1" y1="47.2" x2="65.6" y2="47.2"/>
		<line class="st7" x1="42.1" y1="59.4" x2="65.6" y2="59.4"/>
	</g>
</g>
<g id="Layer_2">
</g>
<g id="Layer_3">
</g>
<g id="Layer_4">
</g>
<g id="Layer_5">
</g>
<g id="Layer_6">
</g>
<g id="Layer_7">
</g>
<g id="Layer_8">
</g>
</svg>
