<?xml version="1.0" encoding="utf-8"?>
<!-- Generator: Adobe Illustrator 24.0.3, SVG Export Plug-In . SVG Version: 6.00 Build 0)  -->
<svg version="1.1" id="Layer_1" xmlns="http://www.w3.org/2000/svg" xmlns:xlink="http://www.w3.org/1999/xlink" x="0px" y="0px"
	 viewBox="0 0 40 41" style="enable-background:new 0 0 40 41;" xml:space="preserve">
<style type="text/css">
	.st0{fill:none;stroke:#000000;stroke-width:1.5;stroke-linecap:round;stroke-linejoin:round;stroke-miterlimit:10;}
	.st1{fill:none;stroke:#000000;stroke-width:1.698;stroke-linecap:round;stroke-linejoin:round;stroke-miterlimit:10;}
	.st2{fill:#FFFFFF;stroke:#000000;stroke-miterlimit:10;}
</style>
<g>
	<path class="st0" d="M7.4,22.4v12.5c0,2.9,2,5.3,4.6,5.3h20.3c2.5,0,4.6-2.4,4.6-5.3V11.5c-0.1-2.9-2.1-5.3-4.6-5.3H21.9
		 M15.7,34.7h-3.3v-3.8h3.3V34.7z M15.7,27.2h-3.3v-3.8h3.3V27.2z M19.1,32.2h13.3H19.1z M19.1,25.3h13.3H19.1z"/>
	<rect x="12.4" y="30.9" class="st1" width="3.3" height="3.8"/>
	<rect x="12.4" y="23.4" class="st1" width="3.3" height="3.8"/>
	<path class="st2" d="M17.4,6.2L17.4,6.2L17.4,6.2z"/>
</g>
<line class="st0" x1="17.7" y1="11" x2="4.5" y2="11"/>
<line class="st0" x1="11" y1="4.4" x2="11" y2="17.6"/>
<g id="Mask_Group_84" transform="translate(-24.898 1)">
	<g id="Layer_1-2" transform="translate(987.898 532)">
		<path id="Path_258" class="st0" d="M-944.7-527.2c2.9,4.1,1.9,9.7-2.2,12.5c-4.1,2.9-9.7,1.9-12.5-2.2s-1.9-9.7,2.2-12.5
			c1.5-1.1,3.3-1.6,5.2-1.6"/>
	</g>
</g>
</svg>
