<svg xmlns="http://www.w3.org/2000/svg" xmlns:xlink="http://www.w3.org/1999/xlink" width="28" height="28" viewBox="0 0 28 28">
  <defs>
    <style>
      .cls-1 {
        fill: #fff;
      }

      .cls-1, .cls-3 {
        stroke: #1d2b46;
      }

      .cls-2 {
        clip-path: url(#clip-path);
      }

      .cls-3 {
        fill: none;
        stroke-linecap: round;
        stroke-linejoin: round;
        stroke-miterlimit: 10;
        stroke-width: 1.5px;
      }
    </style>
    <clipPath id="clip-path">
      <rect id="Rectangle_657" data-name="Rectangle 657" class="cls-1" width="28" height="28" transform="translate(547 265)"/>
    </clipPath>
  </defs>
  <g id="Mask_Group_138" data-name="Mask Group 138" class="cls-2" transform="translate(-547 -265)">
    <g id="Layer_1" transform="translate(544.146 263.797)">
      <g id="Group_1063" data-name="Group 1063">
        <line id="Line_449" data-name="Line 449" class="cls-3" x1="6.863" transform="translate(6.176 12.353)"/>
        <g id="Group_1062" data-name="Group 1062">
          <path id="Path_471" data-name="Path 471" class="cls-3" d="M24.4,15.4v8.006a3.076,3.076,0,0,1-2.936,3.2H8.311a3.075,3.075,0,0,1-2.936-3.2V9.112a3.076,3.076,0,0,1,2.936-3.2h9.608"/>
          <path id="Path_472" data-name="Path 472" class="cls-3" d="M16.2,12.62l8.083-8.54a.921.921,0,0,1,1.334,0l2.326,2.44a1.013,1.013,0,0,1,0,1.411l-8.083,8.54L15.631,18a.688.688,0,0,1-.839-.877Z"/>
        </g>
      </g>
    </g>
  </g>
</svg>
